<svg xmlns="http://www.w3.org/2000/svg" xmlns:xlink="http://www.w3.org/1999/xlink" version="1.1" x="0px" y="0px"
     viewBox="0 0 100 100" enable-background="new 0 0 100 100" xml:space="preserve" style="max-width:100%" height="100"
     width="100"><path fill="#FFFFFF" d="M98.281,55.473c-0.389-2.293-2.471-3.373-4.286-4.481c-2.129-1.299-4.373-2.417-6.722-3.263  c-3.403-1.228-6.983-1.815-10.575-1.685C84.604,36.057,91.441,24.435,96.076,11C99.802,0.199,90,2,86,14h1  c2.282-2.825,7.332-7.279,6.016-4c-2.947,7.341-7.518,16.847-18.649,31.271c0.073-2.063-0.05-4.13-0.356-6.176  C78.46,25.691,81.214,15.844,81,6c-0.191-8.844-9.701-3.342-11,6l1,1c0,0,6.057-12.138,6.428-7.358  c0.352,4.52-1.033,11.179-5.619,21.195c-0.399-1.043-0.828-2.076-1.314-3.081c-0.532-1.098-1.061-2.241-2.139-2.913  c-2.528-1.577-5.018,0.38-7.074,1.819c-2.271,1.588-4.383,3.412-6.219,5.49c-2.892,3.275-5.028,7.17-6.138,11.401  c-3.546-2.979-7.802-4.986-12.33-5.93c-2.802-0.584-5.677-0.775-8.534-0.668c-2.604,0.098-5.808,0.176-6.535,3.293  c-0.276,1.188,0.076,2.538,0.318,3.703c0.48,2.304,1.166,4.568,2.035,6.754c2.181,5.48,5.619,10.498,10.363,14.064  c-4.225,2.853-7.656,6.787-10.211,11.176c-1.074,1.845-2.001,3.775-2.744,5.775c-0.695,1.867-1.514,3.999-0.471,5.853  C10.331,89.405,2,94.538,2,98c0,0,9.217-2.945,22.064-9.657c-5.763,6.276-8.915,10.466-5.732,9.81c0,0,5.811-4.221,13.883-11.356  c1.822,0.041,3.646-0.052,5.449-0.338c5.076-0.808,9.811-3.042,13.734-6.351c4.037,8.498,12.509,14.711,21.442,17.297  c5.896,1.705,6.261-7.043,6.45-10.803c0.25-4.947-0.628-9.925-2.832-14.377c6.034-1.115,11.536-4.226,16.075-8.289  C94.602,62.085,98.828,58.688,98.281,55.473z M52.762,40.718c0.303-1.184,0.698-2.344,1.184-3.466  c2.438-5.642,7.06-9.945,12.291-13.015c1.361,2.39,2.384,5.041,3.08,7.754c-0.008,0.012-0.012,0.024-0.02,0.037  c0.281,1.066,0.531,2.214,0.721,3.423c0.024,0.156,0.045,0.312,0.066,0.468c0.277,1.955,0.398,4.057,0.234,6.238  c0.002-0.001,0.002-0.002,0.002-0.003c-0.068,0.926-0.186,1.849-0.355,2.762c-0.091,0.483-0.195,0.963-0.314,1.44  c-0.239,0.949-0.33,0.969-1.236,1.292c-0.939,0.336-1.862,0.721-2.766,1.147c-0.938-2.475-2.284-4.993-3.967-5.385  c-1.772-0.413-4.375,1.637-6.399,3.614c-0.538-0.878-1.104-1.739-1.726-2.563c-0.373-0.494-1.305-1.252-1.197-1.865  C52.468,41.965,52.602,41.338,52.762,40.718z M25.422,37.158c8.007-0.866,16.715,0.854,22.48,6.868  c1.744,1.819,3.27,3.868,4.546,6.069c-0.128,0.154-0.21,0.256-0.21,0.256s-10.367-0.342-11.292,1.14  c-0.932,1.487,5.092,9.794,5.092,9.794s-0.068,0.168-0.183,0.46c-1.15-0.259-2.29-0.57-3.392-0.991  c-0.708-0.271-1.401-0.566-2.083-0.9c-0.698-0.344-1.608-0.635-2.244-1.039C38.147,58.818,38.096,59,38.104,59  c-0.135-0.582-0.851-0.973-1.344-1.337C30.426,52.988,26.369,44.896,25.422,37.158z M49.363,76.641  c-0.004,0.004,0,0.002-0.006,0.006c-0.116,0.104-0.055,0.049-0.004,0.004c-6.093,5.433-13.95,6.941-21.721,5.707  c-0.027-0.004-0.055-0.008-0.082-0.014c-0.431-0.068-0.861-0.152-1.291-0.238c-0.644-0.133-1.291-0.271-1.959-0.444  c-0.012-0.003-0.025-0.006-0.037-0.009c1.612-5.854,5.152-11.534,9.728-15.517c1.304-1.135,2.741-1.968,4.169-2.919  c1.703,0.876,3.498,1.572,5.344,2.086c0.319,0.09,0.643,0.161,0.964,0.239c-1.001,2.958-1.992,6.515-1.304,7.353  c0.909,1.107,8.138-0.508,10.445-1.058C52.37,73.587,50.959,75.209,49.363,76.641z M74.145,93.613  c-4.627-1.271-9.107-3.797-12.711-6.93c-1.482-1.291-2.84-2.729-4.009-4.31c-0.659-0.892-1.259-1.825-1.79-2.798  c-0.244-0.447-0.474-0.902-0.688-1.365c-0.109-0.234-0.215-0.473-0.315-0.711c-0.237-0.562,0.144-0.684,0.509-1.109  c0.705-0.82,1.37-1.683,2.008-2.568c2.802,2.051,6.851,4.746,8.121,4.219c1.617-0.672,2.312-8.604,2.482-10.939  c1.982,1.918,3.691,4.105,4.958,6.578C75.882,79.865,75.866,87.002,74.145,93.613z M94.027,56.482  c-0.303,0.39-0.579,0.797-0.905,1.176c-0.771,0.849-1.529,1.706-2.37,2.488c-2.59,2.475-5.537,4.604-8.783,6.135  c-1.654,0.552-3.181,1.324-4.894,1.742c-0.929,0.226-1.867,0.396-2.815,0.51c-0.781-1.109-1.642-2.164-2.566-3.157  c-0.25-0.269-0.512-0.522-0.771-0.783c2.55-1.586,5.736-3.765,5.79-4.774c0.116-2.073-9.546-5.891-9.546-5.891  s-0.085-0.4-0.247-1.041c3.234-1.57,6.739-2.535,10.383-2.608c3.09-0.062,6.174,0.515,9.069,1.583  c0.806,0.3,8.235,3.906,7.946,4.312C94.234,56.275,94.096,56.389,94.027,56.482z M49.357,76.646l0.005-0.004l-0.008,0.006  L49.357,76.646z M98.281,55.473C98.459,56.52,98.104,54.427,98.281,55.473L98.281,55.473z" style=""/></svg>