<svg xmlns="http://www.w3.org/2000/svg" xmlns:xlink="http://www.w3.org/1999/xlink" version="1.1" x="0px" y="0px"
     viewBox="0 0 48 48" enable-background="new 0 0 48 48" xml:space="preserve" style="max-width:100%" height="48"
     width="48"><g style="" fill="#FFFFFF"><path d="M22.6,32.1c0.6,0,1-0.4,1-1v-1c0-0.6-0.4-1-1-1c-0.6,0-1,0.4-1,1v1C21.6,31.6,22,32.1,22.6,32.1z" style="" fill="#FFFFFF"/><path
        d="M17,38.9c-0.6,0-1,0.4-1,1v1c0,0.6,0.4,1,1,1c0.6,0,1-0.4,1-1v-1C18,39.3,17.6,38.9,17,38.9z" style=""
        fill="#FFFFFF"/><path
        d="M10.1,38.4c-0.6,0-1,0.4-1,1v1c0,0.6,0.4,1,1,1c0.6,0,1-0.4,1-1v-1C11.1,38.9,10.7,38.4,10.1,38.4z" style=""
        fill="#FFFFFF"/><path
        d="M11.1,31.1c-0.6,0-1,0.4-1,1v1c0,0.6,0.4,1,1,1c0.6,0,1-0.4,1-1v-1C12.1,31.6,11.6,31.1,11.1,31.1z" style=""
        fill="#FFFFFF"/><path
        d="M6.1,29.6c-0.6,0-1,0.4-1,1v1c0,0.6,0.4,1,1,1c0.6,0,1-0.4,1-1v-1C7.1,30,6.7,29.6,6.1,29.6z" style=""
        fill="#FFFFFF"/><path
        d="M17.9,35.1c0.6,0,1-0.4,1-1v-1c0-0.6-0.4-1-1-1c-0.6,0-1,0.4-1,1v1C16.9,34.6,17.3,35.1,17.9,35.1z" style=""
        fill="#FFFFFF"/><path
        d="M40.3,7.5c0.1-0.3,0.1-0.6-0.1-0.9l-4-6.2C36.1,0.2,35.8,0,35.5,0c-0.3,0-0.6,0.1-0.8,0.3l-4.9,5.3c0,0,0,0,0,0l0,0   c-0.2,0.2-0.3,0.5-0.3,0.8c0,0.3,0.2,0.6,0.5,0.7l0.9,0.5c-1,4.7-4,9-8.3,12.1c-2.2-1.1-5-1.8-8.2-1.8c0.1-0.9,0.6-2.4,2.7-3.4   c0.5-0.2,0.7-0.8,0.5-1.3c-0.2-0.5-0.8-0.7-1.3-0.5c-2.9,1.4-3.7,3.6-3.9,5.2c-6.7,0.4-11.8,3.6-11.8,7.7c0,0.1,0,0.1,0,0.2   c-0.4,1.1-0.6,2.3-0.6,3.6C0.1,36.7,6,48,13.9,48c2.1,0,4-0.8,5.8-2.1c1.9,0.5,3.9,0.8,5.8,0.8c6.7,0,13.3-3,17.5-8.4   C50.5,28.9,49.2,15.3,40.3,7.5z M35.3,2.6l2.9,4.4l-0.8,0.8l-0.6,0.7L32.1,6L35.3,2.6z M27.6,27.4c5.1-4.6,8.1-10.9,8.1-17.2   l0.6,0.3c2.2,5.9,1.2,13.2-2.8,19.1c-1.9,2.9-4.4,5.2-7.2,6.9C27.8,33.6,27.9,28.4,27.6,27.4z M32.8,8.7l0.9,0.5   c0.3,5.7-2,11.5-6.5,16c-0.2-1.6-1.1-3-2.6-4.2C28.6,17.7,31.6,13.3,32.8,8.7z M13.8,19.9H14c5.4,0,10,2,11,4.6   c-4.6-0.4-7-1.8-7.1-1.9c-0.3-0.2-0.7-0.2-1,0c-0.4,0.3-0.6,0.6-0.5,1.1c-0.2,1.9-1.7,3-2.5,3.5c-1.6-1-2.6-2.3-2.6-3.6   c-0.3-1.4-1.3-1-1.5-0.9c-3.3,1.7-6.8,1.8-6.9,1.8C3.8,21.9,8.4,19.9,13.8,19.9z M19,43.9c-0.1,0.1-0.2,0.1-0.3,0.3   c-1.5,1.1-3.1,1.8-4.8,1.8C7.4,46,2.1,35.9,2.1,29.4c0-1.1,0.1-2,0.4-2.8c0.1,0,4.1-0.1,7-1.4c0.9,2.6,3.6,4,3.8,4.1   c0.1,0.1,0.3,0.1,0.5,0.1c0.2,0,0.3,0,0.5-0.1c2.1-1.1,3.4-2.6,3.9-4.2c3.9,1.6,7,1.5,7.2,1.5c0.3,0.8,0.4,1.7,0.4,2.8   c0,2.7-0.9,6-2.4,8.9c0,0,0,0.1-0.1,0.1C22.2,40.6,20.7,42.6,19,43.9z M41.5,37.1c-4.7,5.9-12.6,8.7-20,7.2c1.3-1.4,2.5-3,3.4-4.8   c4.1-1.8,7.6-4.9,10.2-8.7c4.3-6.4,5.4-14.3,3-20.8L39.1,9C47.2,16.2,48.3,28.5,41.5,37.1z"
        style="" fill="#FFFFFF"/></g></svg>