<svg xmlns:xlink="http://www.w3.org/1999/xlink" xmlns="http://www.w3.org/2000/svg"
     viewBox="0 0 100 100" x="0px" y="0px" style="max-width:100%" height="100" width="100">
    <path d="M89.62,28.91H74.5l7.6-7.6a1.53,1.53,0,0,0-2.17-2.17l-7.6,7.6V6.53a1.54,1.54,0,0,0-3.07,0V26.74l-7.6-7.6a1.53,1.53,0,0,0-2.17,2.17l7.6,7.6H52A1.54,1.54,0,0,0,52,32H67.09l-7.6,7.6a1.53,1.53,0,1,0,2.17,2.17l7.6-7.6v20.2a1.54,1.54,0,0,0,3.07,0V34.15l7.6,7.6a1.53,1.53,0,0,0,2.17-2.17L74.5,32H89.62a1.54,1.54,0,1,0,0-3.07Z"
          style="" fill="#FFFFFF"/>
    <path d="M28.84,36.86a1.52,1.52,0,0,0,1.08-.45l4.88-4.88a1.53,1.53,0,1,0-2.17-2.17l-4.88,4.88a1.54,1.54,0,0,0,1.09,2.62Z"
          style="" fill="#FFFFFF"/>
    <path d="M20.43,41.56l-4.87,4.88a1.53,1.53,0,0,0,1.08,2.61,1.55,1.55,0,0,0,1.09-.45l4.87-4.87a1.53,1.53,0,1,0-2.17-2.17Z"
          style="" fill="#FFFFFF"/>
    <path d="M34.8,46.44l-4.88-4.88a1.53,1.53,0,1,0-2.17,2.17l4.88,4.87a1.55,1.55,0,0,0,1.09.45,1.53,1.53,0,0,0,1.08-2.61Z"
          style="" fill="#FFFFFF"/>
    <path d="M17.73,29.36a1.53,1.53,0,1,0-2.17,2.17l4.87,4.88a1.55,1.55,0,0,0,1.09.45,1.54,1.54,0,0,0,1.08-2.62Z"
          style="" fill="#FFFFFF"/>
    <path d="M25.18,22.65a1.53,1.53,0,0,0-1.54,1.53v2.28a1.54,1.54,0,0,0,3.07,0V24.18A1.52,1.52,0,0,0,25.18,22.65Z"
          style="" fill="#FFFFFF"/>
    <path d="M25.18,50a1.54,1.54,0,0,0-1.54,1.54v2.27a1.54,1.54,0,1,0,3.07,0V51.51A1.53,1.53,0,0,0,25.18,50Z" style=""
          fill="#FFFFFF"/>
    <path d="M37.7,40.52H40a1.54,1.54,0,0,0,0-3.07H37.7a1.54,1.54,0,0,0,0,3.07Z" style="" fill="#FFFFFF"/>
    <path d="M12.66,37.45H10.38a1.54,1.54,0,1,0,0,3.07h2.28a1.54,1.54,0,0,0,0-3.07Z" style="" fill="#FFFFFF"/>
    <path d="M56.24,78.69a1.53,1.53,0,0,0-2.17,2.17l3.61,3.61a1.53,1.53,0,0,0,2.17-2.17Z" style="" fill="#FFFFFF"/>
    <path d="M37.76,62.37a1.53,1.53,0,0,0,0,2.17l3.61,3.61a1.52,1.52,0,0,0,1.08.45A1.54,1.54,0,0,0,43.54,66l-3.61-3.61A1.55,1.55,0,0,0,37.76,62.37Z"
          style="" fill="#FFFFFF"/>
    <path d="M41.37,78.69,37.76,82.3a1.53,1.53,0,1,0,2.17,2.17l3.61-3.61a1.55,1.55,0,0,0,0-2.17A1.53,1.53,0,0,0,41.37,78.69Z"
          style="" fill="#FFFFFF"/>
    <path d="M55.16,68.6a1.52,1.52,0,0,0,1.08-.45l3.61-3.61a1.53,1.53,0,0,0,0-2.17,1.55,1.55,0,0,0-2.17,0L54.07,66a1.54,1.54,0,0,0,1.09,2.62Z"
          style="" fill="#FFFFFF"/>
    <path d="M48.8,51.84a1.54,1.54,0,0,0-1.53,1.54V66a1.54,1.54,0,0,0,3.07,0V53.38A1.54,1.54,0,0,0,48.8,51.84Z" style=""
          fill="#FFFFFF"/>
    <path d="M48.8,79.34a1.54,1.54,0,0,0-1.53,1.53v12.6a1.54,1.54,0,0,0,3.07,0V80.87A1.54,1.54,0,0,0,48.8,79.34Z"
          style="" fill="#FFFFFF"/>
    <path d="M62,71.89h-6.9a1.53,1.53,0,1,0,0,3.06H62a1.53,1.53,0,0,0,0-3.06Z" style="" fill="#FFFFFF"/>
    <path d="M42.49,71.89h-6.9a1.53,1.53,0,1,0,0,3.06h6.9a1.53,1.53,0,0,0,0-3.06Z" style="" fill="#FFFFFF"/>
</svg>