<?xml version="1.0" standalone="no"?>
<!DOCTYPE svg PUBLIC "-//W3C//DTD SVG 20010904//EN"
 "http://www.w3.org/TR/2001/REC-SVG-20010904/DTD/svg10.dtd">
<svg version="1.0" xmlns="http://www.w3.org/2000/svg"
 width="512.000000pt" height="512.000000pt" viewBox="0 0 512.000000 512.000000"
 preserveAspectRatio="xMidYMid meet">

<g transform="translate(0.000000,512.000000) scale(0.100000,-0.100000)"
fill="#fff" stroke="none">
<path d="M1290 5098 c-60 -31 -87 -74 -95 -151 -3 -34 -5 -341 -3 -682 2 -515
5 -625 17 -648 8 -16 258 -258 555 -540 298 -281 541 -514 541 -517 0 -3 -244
-236 -541 -518 -349 -330 -546 -523 -555 -544 -11 -27 -14 -156 -14 -703 0
-658 0 -671 21 -705 24 -42 74 -77 121 -86 89 -17 21 -79 1336 1234 670 669
1225 1229 1233 1244 18 35 18 121 0 156 -8 15 -561 572 -1228 1239 -860 859
-1224 1217 -1250 1228 -51 21 -86 19 -138 -7z"/>
</g>
</svg>
