<svg xmlns="http://www.w3.org/2000/svg" xmlns:xlink="http://www.w3.org/1999/xlink" version="1.1" x="0px" y="0px" viewBox="0 0 100 100" enable-background="new 0 0 100 100" xml:space="preserve" style="max-width:100%" height="100%"><g style="" fill="currentColor"><path fill="currentColor" d="M49.863,5.03c-16.646,0-30.188,13.541-30.188,30.188c0,16.033,27.46,55.978,28.63,57.676l1.557,2.246   l1.548-2.246c1.17-1.699,28.64-41.643,28.64-57.676C80.05,18.572,66.509,5.03,49.863,5.03z M49.863,8.805   c14.561,0,26.413,11.852,26.413,26.413c0,12.796-20.534,44.437-26.413,53.232C43.984,79.654,23.45,48.014,23.45,35.218   C23.45,20.657,35.293,8.805,49.863,8.805z" style=""></path></g><g style="" fill="currentColor"><path fill="currentColor" d="M49.995,16.678c-9.77,0-17.71,7.94-17.71,17.7c0,9.77,7.94,17.71,17.71,17.71   c9.76,0,17.71-7.94,17.71-17.71C67.705,24.618,59.755,16.678,49.995,16.678z M49.995,48.088c-7.56,0-13.71-6.15-13.71-13.71   c0-7.55,6.15-13.7,13.71-13.7s13.71,6.15,13.71,13.7C63.706,41.938,57.555,48.088,49.995,48.088z" style=""></path></g></svg>