<svg xmlns="http://www.w3.org/2000/svg" xmlns:xlink="http://www.w3.org/1999/xlink" version="1.1" x="0px" y="0px" viewBox="0 0 100 100" enable-background="new 0 0 100 100" xml:space="preserve" style="max-width:100%" height="100%"><path d="M92.863,35.62c-0.771-1.098-1.693-2.081-2.739-2.917c-2.002-1.6-4.45-2.657-7.124-2.964V2.75H19.25v26.983  c-2.691,0.301-5.155,1.361-7.168,2.97c-1.046,0.836-1.969,1.818-2.74,2.917c-1.595,2.273-2.54,5.035-2.54,8.017v36.727  c0,7.72,6.28,14,14,14h60.602c7.72,0,14-6.28,14-14V43.637C95.403,40.654,94.459,37.893,92.863,35.62z M79,6.75v22.887H23.25V6.75  H79z M20.802,33.637h60.602c2.193,0,4.217,0.718,5.867,1.919L58.174,64.653c-1.889,1.889-4.4,2.929-7.072,2.929  c-2.67,0-5.182-1.04-7.07-2.929L14.935,35.556C16.585,34.354,18.609,33.637,20.802,33.637z M91.403,80.363c0,5.514-4.486,10-10,10  H20.802c-5.514,0-10-4.486-10-10V43.637c0-1.875,0.528-3.625,1.43-5.127l28.971,28.972c2.644,2.645,6.16,4.101,9.898,4.101  c3.74,0,7.256-1.456,9.9-4.101L89.973,38.51c0.902,1.502,1.431,3.252,1.431,5.127V80.363z" style="" fill="white"></path><g style="" fill="white"><rect x="48" y="11.75" width="25.75" height="2" style="" fill="white"></rect></g><g style="" fill="white"><rect x="48" y="21.75" width="25.75" height="2" style="" fill="white"></rect></g><g style="" fill="white"><rect x="48" y="16.75" width="25.75" height="2" style="" fill="white"></rect></g><g style="" fill="white"><path d="M38.347,14.878c-0.04,0.16-0.107,0.36-0.2,0.6l-0.4,0.94l-0.34,0.8c-0.214,0.507-0.354,0.92-0.42,1.24   c-0.093,0.36-0.113,0.62-0.06,0.78c0.04,0.094,0.073,0.147,0.1,0.16l0.08,0.04c0.027,0.014,0.066,0.027,0.12,0.04   c0.053,0.013,0.113,0.033,0.18,0.06c0.733,0.28,1.446,0.153,2.14-0.38s1.073-1.2,1.14-2c0.146-1.547-0.113-2.797-0.78-3.75   c-0.667-0.953-1.56-1.55-2.68-1.79c-1.107-0.253-2.244-0.127-3.41,0.38c-1.167,0.507-2.13,1.347-2.89,2.52   c-0.12,0.2-0.223,0.447-0.31,0.74c-0.087,0.293-0.15,0.54-0.19,0.74c-0.027,0.213-0.06,0.513-0.1,0.9   c-0.12,1.147,0.11,2.227,0.69,3.24s1.37,1.806,2.37,2.38c0.653,0.373,1.33,0.613,2.03,0.72c0.7,0.107,1.41,0.047,2.13-0.18   c0.72-0.227,1.373-0.627,1.96-1.2c0.146-0.16,0.297-0.164,0.45-0.01c0.153,0.153,0.15,0.303-0.01,0.45   c-0.653,0.653-1.39,1.11-2.21,1.37c-0.82,0.26-1.62,0.33-2.4,0.21c-0.78-0.12-1.537-0.387-2.27-0.8   c-1.107-0.64-1.98-1.52-2.62-2.64c-0.64-1.12-0.893-2.327-0.76-3.62c0.04-0.413,0.073-0.713,0.1-0.9   c0.04-0.213,0.11-0.497,0.21-0.85c0.1-0.353,0.236-0.656,0.41-0.91c0.813-1.28,1.866-2.197,3.16-2.75s2.56-0.697,3.8-0.43   c1.28,0.28,2.3,0.963,3.06,2.05c0.76,1.087,1.06,2.477,0.9,4.17c-0.04,0.48-0.187,0.937-0.44,1.37   c-0.253,0.434-0.574,0.797-0.96,1.09c-0.88,0.693-1.8,0.853-2.76,0.48c-0.014-0.013-0.053-0.03-0.12-0.05s-0.13-0.04-0.19-0.06   s-0.104-0.043-0.13-0.07c-0.173-0.093-0.307-0.26-0.4-0.5c-0.494,0.467-1.094,0.733-1.8,0.8c-0.507,0.04-0.953-0.06-1.34-0.3   c-0.387-0.24-0.627-0.626-0.72-1.16c-0.106-0.667,0.02-1.37,0.38-2.11c0.36-0.74,0.84-1.33,1.44-1.77   c0.653-0.493,1.287-0.673,1.9-0.54c0.52,0.12,0.953,0.454,1.3,1c0.12-0.28,0.193-0.5,0.22-0.66c0.026-0.08,0.077-0.143,0.15-0.19   c0.073-0.046,0.153-0.06,0.24-0.04c0.086,0.02,0.153,0.067,0.2,0.14C38.343,14.702,38.36,14.785,38.347,14.878z M36.307,18.498   l0.04-0.2c0.093-0.346,0.247-0.787,0.46-1.32l0.36-0.84c-0.28-0.653-0.647-1.027-1.1-1.12c-0.427-0.093-0.894,0.047-1.4,0.42   c-0.507,0.374-0.917,0.877-1.23,1.51c-0.313,0.634-0.423,1.21-0.33,1.73c0.12,0.693,0.573,1.007,1.36,0.94   c0.36-0.027,0.703-0.133,1.03-0.32c0.327-0.187,0.557-0.406,0.69-0.66C36.213,18.571,36.253,18.525,36.307,18.498z" style="" fill="white"></path></g></svg>