<svg xmlns="http://www.w3.org/2000/svg" xmlns:xlink="http://www.w3.org/1999/xlink" version="1.1" x="0px" y="0px" viewBox="0 0 512 512" enable-background="new 0 0 512 512" xml:space="preserve" style="max-width:100%" height="100%"><g style="" fill="currentColor"><g style="" fill="currentColor"><path fill="currentColor" d="M256.5,45.662C140.333,45.662,46.162,139.833,46.162,256c0,116.166,94.171,210.338,210.338,210.338    S466.838,372.166,466.838,256C466.838,139.833,372.667,45.662,256.5,45.662z M387.554,387.053    c-17.026,17.027-36.849,30.394-58.917,39.728c-22.839,9.659-47.108,14.558-72.137,14.558s-49.299-4.898-72.137-14.558    c-22.068-9.334-41.891-22.7-58.917-39.728c-17.027-17.025-30.393-36.849-39.727-58.916C76.06,305.298,71.162,281.028,71.162,256    s4.898-49.298,14.558-72.137c9.334-22.068,22.7-41.891,39.726-58.918c17.027-17.026,36.85-30.392,58.917-39.726    c22.838-9.659,47.108-14.558,72.137-14.558s49.298,4.898,72.137,14.558c22.068,9.334,41.891,22.699,58.917,39.726    c17.027,17.027,30.393,36.85,39.727,58.918c9.659,22.839,14.558,47.108,14.558,72.137s-4.898,49.298-14.558,72.137    C417.946,350.204,404.581,370.027,387.554,387.053z" style=""></path><polygon fill="currentColor" points="253.099,126 243.69,126 223.395,264.06 222.4,272.617 229.432,278.22 367.856,380.532     373.028,375.215 255.5,256   " style=""></polygon></g></g></svg>