<svg xmlns="http://www.w3.org/2000/svg" xmlns:xlink="http://www.w3.org/1999/xlink" version="1.1" x="0px" y="0px" viewBox="0 0 100 100" enable-background="new 0 0 100 100" xml:space="preserve" style="max-width:100%" height="100%"><path d="M73.733,92.002c-0.001,0-0.002,0-0.003,0C57.5,92.001,39.091,75.379,31.93,68.233C24.096,60.416,6.099,40.416,8.162,23.57  c0.776-6.333,4.295-11.421,10.46-15.123c0.496-0.298,1.063-0.449,1.685-0.449c4.849,0,14.412,11.319,18.283,16.8  c5.533,7.835,4.749,10.046,4.454,10.878c-0.938,2.644-2.683,4.186-4.222,5.545c-1.347,1.19-2.51,2.217-3.103,3.888  c-0.082,0.406,0.456,2.598,3.97,6.917c5.522,6.787,12.798,12.252,15.141,12.252c1.729-0.592,2.758-1.755,3.947-3.102  c1.36-1.539,2.901-3.283,5.546-4.222c0.372-0.132,0.784-0.199,1.224-0.199c5.575,0,21.702,13.226,25.487,19.907  c0.401,0.709,1.623,2.867,0.517,4.712C87.324,88.427,81.328,92.002,73.733,92.002z M20.446,12.02  c-4.976,3.057-7.696,6.997-8.313,12.036c-1.283,10.473,7.174,25.93,22.622,41.345c6.81,6.795,24.238,22.6,38.977,22.601  c0,0,0.001,0,0.002,0c6.097,0,10.761-2.767,14.249-8.456c-0.66-3.953-18.215-18.726-22.408-18.79  c-1.618,0.602-2.631,1.747-3.799,3.069c-1.361,1.54-2.903,3.285-5.549,4.224c-0.428,0.152-0.897,0.229-1.396,0.229  c-5.299,0-15.411-9.53-20.045-16.092c-2.608-3.692-3.536-6.444-2.836-8.415c0.938-2.646,2.684-4.188,4.223-5.548  c1.324-1.169,2.47-2.183,3.071-3.804c0.022-1.441-3.24-7.22-9.33-14.125C24.913,14.623,21.556,12.27,20.446,12.02z" style="" fill="white"></path></svg>